# xmcd
#
# Track frame offsets:
#	150
#	18035
#	39970
#	68725
#	88010
#	105342
#	125865
#	143585
#	166067
#	186105
#	205587
#	226695
#	247787
#	269550
#	290175
#	314402
#
# Disc length: 4504 seconds
#
# Revision: 1
# Processed by: cddbd v1.5.1PL0 Copyright (c) Steve Scherf et al.
# Submitted via: CDex 1.50Beta5
#
DISCID=d1119610
DTITLE=ボビー・ブラウン - R&B グルーヴ〜ニュー・ジャック・スウィング!
DYEAR=2002
DGENRE=
TTITLE0=ボビー・ブラウン/エヴリ・リトル・ステップ
TTITLE1=ヘヴィ・D&ザ・ボーイズ/イズ・イット・グッド・トゥ・ユー
TTITLE2=アーロン・ホール/ドゥ・エニシング
TTITLE3=・エディション/ヒット・ミー・オフ
TTITLE4=ブラックストリート/ユー・ブロウ・マインド
TTITLE5=GUY/グルーヴ・ミー
TTITLE6=ボーイズIIメン/モータウンフィリー
TTITLE7=トニー・トニー・トニー/フィールズ・グッド
TTITLE8=ブラックストリート/ブーツィ・コール
TTITLE9=シャニース/アイ・ラヴ・ユア・スマイル
TTITLE10=ラルフ・トレスヴァント/センシティヴィティ
TTITLE11=クリストファー・ウィリアムズ/エヴリ・リトル・シング・ユー・ドゥ
TTITLE12=JODECI/イフ・アイ・エヴァー・フォール・イン・ラヴ
TTITLE13=メアリー・J.ブライジ/キャンディ・レイン
TTITLE14=ソウル・フォー・リアル/マイ、マイ、マイ
TTITLE15=ジョニー・ギル/ビー・アローン
EXTD=
EXTT0=
EXTT1=
EXTT2=
EXTT3=
EXTT4=
EXTT5=
EXTT6=
EXTT7=
EXTT8=
EXTT9=
EXTT10=
EXTT11=
EXTT12=
EXTT13=
EXTT14=
EXTT15=
PLAYORDER=
